<svg width="24" height="25" viewBox="0 0 24 25" fill="none" xmlns="http://www.w3.org/2000/svg">
<path d="M10 4.37061C14.41 4.37061 18 7.96061 18 12.3706C18 16.7806 14.41 20.3706 10 20.3706C9.66 20.3706 9.32 20.3506 8.99 20.3006C10.9 18.1406 12 15.3206 12 12.3706C12 9.42061 10.9 6.60061 8.99 4.44061C9.32 4.39061 9.66 4.37061 10 4.37061ZM10 2.37061C8.18 2.37061 6.47 2.87061 5 3.72061C7.99 5.45061 10 8.67061 10 12.3706C10 16.0706 7.99 19.2906 5 21.0206C6.47 21.8706 8.18 22.3706 10 22.3706C15.52 22.3706 20 17.8906 20 12.3706C20 6.85061 15.52 2.37061 10 2.37061Z" fill="#565E6C"/>
</svg>
