<svg width="1176" height="384" viewBox="0 0 1176 384" fill="none" xmlns="http://www.w3.org/2000/svg">
<g clip-path="url(#clip0_35_167)">
<rect width="1176" height="384" rx="6" fill="#FAFAFB"/>
<g clip-path="url(#clip1_35_167)">
<path fill-rule="evenodd" clip-rule="evenodd" d="M1249.5 182.1C1348.69 182.1 1429.1 101.69 1429.1 2.49996C1429.1 -96.6904 1348.69 -177.1 1249.5 -177.1C1150.31 -177.1 1069.9 -96.6904 1069.9 2.49996C1069.9 101.69 1150.31 182.1 1249.5 182.1ZM1249.5 194.9C1355.76 194.9 1441.9 108.759 1441.9 2.49996C1441.9 -103.759 1355.76 -189.9 1249.5 -189.9C1143.24 -189.9 1057.1 -103.759 1057.1 2.49996C1057.1 108.759 1143.24 194.9 1249.5 194.9Z" fill="#ECB82B"/>
</g>
<g clip-path="url(#clip2_35_167)">
<path d="M166.72 17.155C167.673 17.155 168.445 16.3826 168.445 15.43C168.445 14.4773 167.673 13.705 166.72 13.705C165.767 13.705 164.995 14.4773 164.995 15.43C164.995 16.3826 165.767 17.155 166.72 17.155Z" fill="#867CE1"/>
<path d="M166.72 46.105C167.673 46.105 168.445 45.3327 168.445 44.38C168.445 43.4273 167.673 42.655 166.72 42.655C165.767 42.655 164.995 43.4273 164.995 44.38C164.995 45.3327 165.767 46.105 166.72 46.105Z" fill="#867CE1"/>
<path d="M166.72 75.055C167.673 75.055 168.445 74.2827 168.445 73.33C168.445 72.3773 167.673 71.605 166.72 71.605C165.767 71.605 164.995 72.3773 164.995 73.33C164.995 74.2827 165.767 75.055 166.72 75.055Z" fill="#867CE1"/>
<path d="M166.72 104.005C167.673 104.005 168.445 103.233 168.445 102.28C168.445 101.327 167.673 100.555 166.72 100.555C165.767 100.555 164.995 101.327 164.995 102.28C164.995 103.233 165.767 104.005 166.72 104.005Z" fill="#867CE1"/>
<path d="M195.65 17.155C196.603 17.155 197.375 16.3826 197.375 15.43C197.375 14.4773 196.603 13.705 195.65 13.705C194.698 13.705 193.925 14.4773 193.925 15.43C193.925 16.3826 194.698 17.155 195.65 17.155Z" fill="#867CE1"/>
<path d="M195.65 46.105C196.603 46.105 197.375 45.3327 197.375 44.38C197.375 43.4273 196.603 42.655 195.65 42.655C194.698 42.655 193.925 43.4273 193.925 44.38C193.925 45.3327 194.698 46.105 195.65 46.105Z" fill="#867CE1"/>
<path d="M195.65 75.055C196.603 75.055 197.375 74.2827 197.375 73.33C197.375 72.3773 196.603 71.605 195.65 71.605C194.698 71.605 193.925 72.3773 193.925 73.33C193.925 74.2827 194.698 75.055 195.65 75.055Z" fill="#867CE1"/>
<path d="M195.65 104.005C196.603 104.005 197.375 103.233 197.375 102.28C197.375 101.327 196.603 100.555 195.65 100.555C194.698 100.555 193.925 101.327 193.925 102.28C193.925 103.233 194.698 104.005 195.65 104.005Z" fill="#867CE1"/>
<path d="M224.57 17.155C225.523 17.155 226.295 16.3826 226.295 15.43C226.295 14.4773 225.523 13.705 224.57 13.705C223.618 13.705 222.845 14.4773 222.845 15.43C222.845 16.3826 223.618 17.155 224.57 17.155Z" fill="#867CE1"/>
<path d="M224.57 46.105C225.523 46.105 226.295 45.3327 226.295 44.38C226.295 43.4273 225.523 42.655 224.57 42.655C223.618 42.655 222.845 43.4273 222.845 44.38C222.845 45.3327 223.618 46.105 224.57 46.105Z" fill="#867CE1"/>
<path d="M224.57 75.055C225.523 75.055 226.295 74.2827 226.295 73.33C226.295 72.3773 225.523 71.605 224.57 71.605C223.618 71.605 222.845 72.3773 222.845 73.33C222.845 74.2827 223.618 75.055 224.57 75.055Z" fill="#867CE1"/>
<path d="M224.57 104.005C225.523 104.005 226.295 103.233 226.295 102.28C226.295 101.327 225.523 100.555 224.57 100.555C223.618 100.555 222.845 101.327 222.845 102.28C222.845 103.233 223.618 104.005 224.57 104.005Z" fill="#867CE1"/>
<path d="M253.5 17.155C254.453 17.155 255.225 16.3826 255.225 15.43C255.225 14.4773 254.453 13.705 253.5 13.705C252.547 13.705 251.775 14.4773 251.775 15.43C251.775 16.3826 252.547 17.155 253.5 17.155Z" fill="#867CE1"/>
<path d="M253.5 46.105C254.453 46.105 255.225 45.3327 255.225 44.38C255.225 43.4273 254.453 42.655 253.5 42.655C252.547 42.655 251.775 43.4273 251.775 44.38C251.775 45.3327 252.547 46.105 253.5 46.105Z" fill="#867CE1"/>
<path d="M253.5 75.055C254.453 75.055 255.225 74.2827 255.225 73.33C255.225 72.3773 254.453 71.605 253.5 71.605C252.547 71.605 251.775 72.3773 251.775 73.33C251.775 74.2827 252.547 75.055 253.5 75.055Z" fill="#867CE1"/>
<path d="M253.5 104.005C254.453 104.005 255.225 103.233 255.225 102.28C255.225 101.327 254.453 100.555 253.5 100.555C252.547 100.555 251.775 101.327 251.775 102.28C251.775 103.233 252.547 104.005 253.5 104.005Z" fill="#867CE1"/>
<path d="M282.43 17.155C283.383 17.155 284.155 16.3826 284.155 15.43C284.155 14.4773 283.383 13.705 282.43 13.705C281.477 13.705 280.705 14.4773 280.705 15.43C280.705 16.3826 281.477 17.155 282.43 17.155Z" fill="#867CE1"/>
<path d="M282.43 46.105C283.383 46.105 284.155 45.3327 284.155 44.38C284.155 43.4273 283.383 42.655 282.43 42.655C281.477 42.655 280.705 43.4273 280.705 44.38C280.705 45.3327 281.477 46.105 282.43 46.105Z" fill="#867CE1"/>
<path d="M282.43 75.055C283.383 75.055 284.155 74.2827 284.155 73.33C284.155 72.3773 283.383 71.605 282.43 71.605C281.477 71.605 280.705 72.3773 280.705 73.33C280.705 74.2827 281.477 75.055 282.43 75.055Z" fill="#867CE1"/>
<path d="M282.43 104.005C283.383 104.005 284.155 103.233 284.155 102.28C284.155 101.327 283.383 100.555 282.43 100.555C281.477 100.555 280.705 101.327 280.705 102.28C280.705 103.233 281.477 104.005 282.43 104.005Z" fill="#867CE1"/>
<path d="M311.35 17.155C312.303 17.155 313.075 16.3826 313.075 15.43C313.075 14.4773 312.303 13.705 311.35 13.705C310.397 13.705 309.625 14.4773 309.625 15.43C309.625 16.3826 310.397 17.155 311.35 17.155Z" fill="#867CE1"/>
<path d="M311.35 46.105C312.303 46.105 313.075 45.3327 313.075 44.38C313.075 43.4273 312.303 42.655 311.35 42.655C310.397 42.655 309.625 43.4273 309.625 44.38C309.625 45.3327 310.397 46.105 311.35 46.105Z" fill="#867CE1"/>
<path d="M311.35 75.055C312.303 75.055 313.075 74.2827 313.075 73.33C313.075 72.3773 312.303 71.605 311.35 71.605C310.397 71.605 309.625 72.3773 309.625 73.33C309.625 74.2827 310.397 75.055 311.35 75.055Z" fill="#867CE1"/>
<path d="M311.35 104.005C312.303 104.005 313.075 103.233 313.075 102.28C313.075 101.327 312.303 100.555 311.35 100.555C310.397 100.555 309.625 101.327 309.625 102.28C309.625 103.233 310.397 104.005 311.35 104.005Z" fill="#867CE1"/>
<path d="M340.28 17.155C341.233 17.155 342.005 16.3826 342.005 15.43C342.005 14.4773 341.233 13.705 340.28 13.705C339.327 13.705 338.555 14.4773 338.555 15.43C338.555 16.3826 339.327 17.155 340.28 17.155Z" fill="#867CE1"/>
<path d="M340.28 46.105C341.233 46.105 342.005 45.3327 342.005 44.38C342.005 43.4273 341.233 42.655 340.28 42.655C339.327 42.655 338.555 43.4273 338.555 44.38C338.555 45.3327 339.327 46.105 340.28 46.105Z" fill="#867CE1"/>
<path d="M340.28 75.055C341.233 75.055 342.005 74.2827 342.005 73.33C342.005 72.3773 341.233 71.605 340.28 71.605C339.327 71.605 338.555 72.3773 338.555 73.33C338.555 74.2827 339.327 75.055 340.28 75.055Z" fill="#867CE1"/>
<path d="M340.28 104.005C341.233 104.005 342.005 103.233 342.005 102.28C342.005 101.327 341.233 100.555 340.28 100.555C339.327 100.555 338.555 101.327 338.555 102.28C338.555 103.233 339.327 104.005 340.28 104.005Z" fill="#867CE1"/>
</g>
<circle cx="74.5" cy="318.5" r="147.5" fill="#867CE1"/>
<g clip-path="url(#clip3_35_167)">
<path d="M1109.72 281.445C1110.67 281.445 1111.45 280.673 1111.45 279.72C1111.45 278.767 1110.67 277.995 1109.72 277.995C1108.77 277.995 1108 278.767 1108 279.72C1108 280.673 1108.77 281.445 1109.72 281.445Z" fill="#867CE1"/>
<path d="M1109.72 310.395C1110.67 310.395 1111.45 309.623 1111.45 308.67C1111.45 307.717 1110.67 306.945 1109.72 306.945C1108.77 306.945 1108 307.717 1108 308.67C1108 309.623 1108.77 310.395 1109.72 310.395Z" fill="#867CE1"/>
<path d="M1109.72 339.345C1110.67 339.345 1111.45 338.573 1111.45 337.62C1111.45 336.667 1110.67 335.895 1109.72 335.895C1108.77 335.895 1108 336.667 1108 337.62C1108 338.573 1108.77 339.345 1109.72 339.345Z" fill="#867CE1"/>
<path d="M1109.72 368.295C1110.67 368.295 1111.45 367.523 1111.45 366.57C1111.45 365.617 1110.67 364.845 1109.72 364.845C1108.77 364.845 1108 365.617 1108 366.57C1108 367.523 1108.77 368.295 1109.72 368.295Z" fill="#867CE1"/>
<path d="M1138.65 281.445C1139.6 281.445 1140.38 280.673 1140.38 279.72C1140.38 278.767 1139.6 277.995 1138.65 277.995C1137.7 277.995 1136.93 278.767 1136.93 279.72C1136.93 280.673 1137.7 281.445 1138.65 281.445Z" fill="#867CE1"/>
<path d="M1138.65 310.395C1139.6 310.395 1140.38 309.623 1140.38 308.67C1140.38 307.717 1139.6 306.945 1138.65 306.945C1137.7 306.945 1136.93 307.717 1136.93 308.67C1136.93 309.623 1137.7 310.395 1138.65 310.395Z" fill="#867CE1"/>
<path d="M1138.65 339.345C1139.6 339.345 1140.38 338.573 1140.38 337.62C1140.38 336.667 1139.6 335.895 1138.65 335.895C1137.7 335.895 1136.93 336.667 1136.93 337.62C1136.93 338.573 1137.7 339.345 1138.65 339.345Z" fill="#867CE1"/>
<path d="M1138.65 368.295C1139.6 368.295 1140.38 367.523 1140.38 366.57C1140.38 365.617 1139.6 364.845 1138.65 364.845C1137.7 364.845 1136.93 365.617 1136.93 366.57C1136.93 367.523 1137.7 368.295 1138.65 368.295Z" fill="#867CE1"/>
<path d="M1167.57 281.445C1168.52 281.445 1169.3 280.673 1169.3 279.72C1169.3 278.767 1168.52 277.995 1167.57 277.995C1166.62 277.995 1165.85 278.767 1165.85 279.72C1165.85 280.673 1166.62 281.445 1167.57 281.445Z" fill="#867CE1"/>
<path d="M1167.57 310.395C1168.52 310.395 1169.3 309.623 1169.3 308.67C1169.3 307.717 1168.52 306.945 1167.57 306.945C1166.62 306.945 1165.85 307.717 1165.85 308.67C1165.85 309.623 1166.62 310.395 1167.57 310.395Z" fill="#867CE1"/>
<path d="M1167.57 339.345C1168.52 339.345 1169.3 338.573 1169.3 337.62C1169.3 336.667 1168.52 335.895 1167.57 335.895C1166.62 335.895 1165.85 336.667 1165.85 337.62C1165.85 338.573 1166.62 339.345 1167.57 339.345Z" fill="#867CE1"/>
<path d="M1167.57 368.295C1168.52 368.295 1169.3 367.523 1169.3 366.57C1169.3 365.617 1168.52 364.845 1167.57 364.845C1166.62 364.845 1165.85 365.617 1165.85 366.57C1165.85 367.523 1166.62 368.295 1167.57 368.295Z" fill="#867CE1"/>
</g>
</g>
<defs>
<clipPath id="clip0_35_167">
<rect width="1176" height="384" rx="6" fill="white"/>
</clipPath>
<clipPath id="clip1_35_167">
<rect width="383" height="383" fill="white" transform="translate(1058 -189)"/>
</clipPath>
<clipPath id="clip2_35_167">
<rect width="177" height="264" fill="white" transform="translate(165 -160)"/>
</clipPath>
<clipPath id="clip3_35_167">
<rect width="177" height="264" fill="white" transform="translate(1108 278)"/>
</clipPath>
</defs>
</svg>
