<svg width="24" height="24" viewBox="0 0 24 24" fill="none" xmlns="http://www.w3.org/2000/svg">
<path d="M17.9994 11.1426L5.99944 11.1426C5.05267 11.1426 4.28516 11.9101 4.28516 12.8569L4.28516 19.714C4.28516 20.6608 5.05267 21.4283 5.99944 21.4283L17.9994 21.4283C18.9462 21.4283 19.7137 20.6608 19.7137 19.714V12.8569C19.7137 11.9101 18.9462 11.1426 17.9994 11.1426Z" stroke="#323842" stroke-width="2.05714" stroke-miterlimit="10" stroke-linecap="square"/>
<path d="M11.9994 18.0008C12.9462 18.0008 13.7137 17.2333 13.7137 16.2866C13.7137 15.3398 12.9462 14.5723 11.9994 14.5723C11.0527 14.5723 10.2852 15.3398 10.2852 16.2866C10.2852 17.2333 11.0527 18.0008 11.9994 18.0008Z" stroke="#323842" stroke-width="2.05714" stroke-miterlimit="10" stroke-linecap="square"/>
<path d="M16.2863 7.71338V6.85624C16.2975 5.73101 15.8613 4.64741 15.0737 3.84372C14.2861 3.04003 13.2115 2.58206 12.0863 2.57052H12.0006C10.8753 2.55933 9.79173 2.9955 8.98804 3.78311C8.18435 4.57073 7.72638 5.6453 7.71484 6.77052V7.71338" stroke="#323842" stroke-width="2.05714" stroke-miterlimit="10" stroke-linecap="square"/>
</svg>
