<svg width="25" height="24" viewBox="0 0 25 24" fill="none" xmlns="http://www.w3.org/2000/svg">
<path d="M21.9199 8.15997C21.9199 8.15997 21.7399 6.83997 21.1399 6.23997C20.4199 5.45997 19.5799 5.45997 19.2199 5.39997C16.5199 5.21997 12.4999 5.21997 12.4999 5.21997C12.4999 5.21997 8.4799 5.21997 5.7799 5.39997C5.4199 5.45997 4.5799 5.45997 3.8599 6.23997C3.2599 6.83997 3.0799 8.15997 3.0799 8.15997C3.0799 8.15997 2.8999 9.71997 2.8999 11.28L2.8999 12.72C2.8999 14.28 3.0799 15.84 3.0799 15.84C3.0799 15.84 3.2599 17.16 3.8599 17.76C4.5799 18.54 5.5399 18.48 5.9599 18.6C7.5199 18.72 12.4999 18.78 12.4999 18.78C12.4999 18.78 16.5199 18.78 19.2199 18.6C19.5799 18.54 20.4199 18.54 21.1399 17.76C21.7399 17.16 21.9199 15.84 21.9199 15.84C21.9199 15.84 22.0999 14.28 22.0999 12.72L22.0999 11.28C22.0999 9.71997 21.9199 8.15997 21.9199 8.15997ZM10.5199 14.52L10.5199 9.11997L15.6799 11.82L10.5199 14.52Z" fill="#6355D8"/>
</svg>
