<svg width="25" height="24" viewBox="0 0 25 24" fill="none" xmlns="http://www.w3.org/2000/svg">
<path d="M22.1 6.06001C21.38 6.36001 20.66 6.60001 19.82 6.66001C20.66 6.18001 21.26 5.40001 21.56 4.50001C20.78 4.98001 19.94 5.28001 19.04 5.46001C18.32 4.68001 17.3 4.20001 16.22 4.20001C14.06 4.20001 12.26 5.94001 12.26 8.16001C12.26 8.46001 12.32 8.76001 12.38 9.06001C9.07997 8.88001 6.19997 7.32001 4.21997 4.92001C3.85997 5.52001 3.67997 6.18001 3.67997 6.90001C3.67997 8.28001 4.39997 9.48001 5.41997 10.2C4.75997 10.2 4.15997 10.02 3.61997 9.72001V9.78001C3.61997 11.7 4.99997 13.26 6.79997 13.62C6.43997 13.68 6.13997 13.74 5.77997 13.74C5.53997 13.74 5.29997 13.74 5.05997 13.68C5.53997 15.24 7.03997 16.38 8.71997 16.44C7.39997 17.52 5.65997 18.12 3.79997 18.12C3.49997 18.12 3.13997 18.12 2.83997 18.06C4.63997 19.14 6.73997 19.8 8.95997 19.8C16.22 19.8 20.18 13.8 20.18 8.58001C20.18 8.40001 20.18 8.22001 20.18 8.10001C20.9 7.50001 21.56 6.84001 22.1 6.06001Z" fill="#6355D8"/>
</svg>
