<svg width="25" height="24" viewBox="0 0 25 24" fill="none" xmlns="http://www.w3.org/2000/svg">
<path d="M22.0999 12C22.0996 10.1654 21.5737 8.36939 20.5844 6.82446C19.595 5.27954 18.1838 4.05043 16.5176 3.28266C14.8514 2.51488 13.0002 2.24059 11.183 2.49225C9.36578 2.74391 7.65874 3.51099 6.26395 4.70267C4.86915 5.89435 3.84502 7.46073 3.31279 9.21638C2.78055 10.972 2.76251 12.8434 3.2608 14.609C3.75909 16.3746 4.75283 17.9604 6.12439 19.1787C7.49595 20.3971 9.18789 21.1969 10.9999 21.4836L10.9999 14.775H8.5627V12H10.9999V9.88498C10.9999 7.47898 12.4333 6.14998 14.6257 6.14998C15.3457 6.15997 16.064 6.22254 16.7749 6.33718V8.69998H15.5641C15.3578 8.67258 15.1479 8.69196 14.9501 8.75668C14.7523 8.82141 14.5716 8.92982 14.4213 9.07388C14.2711 9.21794 14.1552 9.39396 14.0823 9.5889C14.0093 9.78383 13.9812 9.99269 13.9999 10.2V12H16.6627L16.2367 14.775H13.9999L13.9999 21.4836C16.2582 21.1263 18.3148 19.9748 19.7997 18.2363C21.2846 16.4978 22.1003 14.2863 22.0999 12Z" fill="#6355D8"/>
</svg>
