<svg width="25" height="25" viewBox="0 0 25 25" fill="none" xmlns="http://www.w3.org/2000/svg">
<path d="M12.852 13.9901C13.7988 13.9901 14.5663 13.2226 14.5663 12.2758C14.5663 11.329 13.7988 10.5615 12.852 10.5615C11.9052 10.5615 11.1377 11.329 11.1377 12.2758C11.1377 13.2226 11.9052 13.9901 12.852 13.9901Z" stroke="#6355D8" stroke-width="2.05714" stroke-miterlimit="10" stroke-linecap="square"/>
<path d="M5.13714 13.9901C6.08391 13.9901 6.85142 13.2226 6.85142 12.2758C6.85142 11.329 6.08391 10.5615 5.13714 10.5615C4.19036 10.5615 3.42285 11.329 3.42285 12.2758C3.42285 13.2226 4.19036 13.9901 5.13714 13.9901Z" stroke="#6355D8" stroke-width="2.05714" stroke-miterlimit="10" stroke-linecap="square"/>
<path d="M20.5658 13.9901C21.5126 13.9901 22.2801 13.2226 22.2801 12.2758C22.2801 11.329 21.5126 10.5615 20.5658 10.5615C19.6191 10.5615 18.8516 11.329 18.8516 12.2758C18.8516 13.2226 19.6191 13.9901 20.5658 13.9901Z" stroke="#6355D8" stroke-width="2.05714" stroke-miterlimit="10" stroke-linecap="square"/>
</svg>
