<svg width="80" height="80" viewBox="0 0 80 80" fill="none" xmlns="http://www.w3.org/2000/svg">
<path d="M40 63.5897L40 40V44.1026" stroke="#6E7787" stroke-width="2.46154" stroke-miterlimit="10" stroke-linecap="square"/>
<path d="M28.7187 51.2821L40.0008 40L51.2829 51.2821" stroke="#6E7787" stroke-width="2.46154" stroke-miterlimit="10" stroke-linecap="square"/>
<path d="M48.2057 63.5049C52.8426 63.1181 57.2748 61.4251 60.9886 58.622C64.7024 55.8189 67.5457 52.0207 69.1888 47.6675C70.832 43.3144 71.2077 38.5847 70.2724 34.0268C69.3371 29.4688 67.1291 25.2693 63.9044 21.9151C60.6797 18.5608 56.5704 16.1893 52.0528 15.0753C47.5352 13.9613 42.7944 14.1505 38.3799 15.621C33.9655 17.0915 30.0583 19.7831 27.1112 23.3837C24.1641 26.9843 22.2979 31.3464 21.7288 35.9644C18.1941 36.3152 14.9293 38.0111 12.6098 40.7013C10.2902 43.3915 9.09327 46.8702 9.26649 50.4181C9.43971 53.966 10.9698 57.3116 13.5404 59.7631C16.111 62.2145 19.5254 63.5843 23.0775 63.589L31.7955 63.589" stroke="#6E7787" stroke-width="2.46154" stroke-miterlimit="10" stroke-linecap="square"/>
</svg>
